<?xml version="1.0" encoding="utf-8"?>
<!-- Generator: Adobe Illustrator 21.0.0, SVG Export Plug-In . SVG Version: 6.00 Build 0)  -->
<svg version="1.1" id="Calque_1" xmlns="http://www.w3.org/2000/svg" xmlns:xlink="http://www.w3.org/1999/xlink" x="0px" y="0px"
	 viewBox="0 0 1208 92" style="enable-background:new 0 0 1208 92;" xml:space="preserve">
<style type="text/css">
	.st0{opacity:0.19;}
</style>
<g>
	<path d="M60.4,18.3v0.5H44v14h14.4v0.5H44v14.1h-0.5v-29h16.9V18.3z"/>
	<path d="M67.2,17.4v29.8h-0.5V17.4H67.2z"/>
	<path d="M82.5,26.6c1.4,0,2.7,0.3,3.8,0.8c1.1,0.5,2,1.2,2.8,2.1s1.3,2,1.7,3.3c0.4,1.3,0.6,2.7,0.6,4.3s-0.2,3-0.6,4.3
		s-1,2.4-1.7,3.3c-0.8,0.9-1.7,1.6-2.8,2.1c-1.1,0.5-2.4,0.7-3.8,0.7s-2.7-0.2-3.8-0.7c-1.1-0.5-2-1.2-2.8-2.1s-1.3-2-1.7-3.3
		c-0.4-1.3-0.6-2.7-0.6-4.3s0.2-3,0.6-4.3s1-2.4,1.7-3.3c0.8-0.9,1.7-1.6,2.8-2.1S81.1,26.6,82.5,26.6z M82.5,47.1
		c1.4,0,2.6-0.2,3.6-0.7s1.9-1.2,2.6-2c0.7-0.9,1.2-1.9,1.6-3.1c0.4-1.2,0.5-2.6,0.5-4.1s-0.2-2.9-0.5-4.1c-0.4-1.2-0.9-2.3-1.6-3.2
		c-0.7-0.9-1.6-1.6-2.6-2.1s-2.3-0.7-3.6-0.7c-1.4,0-2.6,0.2-3.7,0.7c-1,0.5-1.9,1.2-2.6,2.1s-1.2,1.9-1.6,3.2
		c-0.4,1.2-0.5,2.6-0.5,4.1s0.2,2.9,0.5,4.1c0.4,1.2,0.9,2.3,1.6,3.1c0.7,0.9,1.6,1.5,2.6,2C79.9,46.8,81.1,47.1,82.5,47.1z"/>
	<path d="M97.1,47.2V27h0.1c0.2,0,0.3,0.1,0.3,0.3l0.1,5.6c0.3-1,0.6-1.9,1.1-2.7c0.4-0.8,0.9-1.4,1.5-2c0.6-0.5,1.2-0.9,2-1.2
		c0.7-0.3,1.6-0.4,2.5-0.4c0.7,0,1.3,0.1,1.8,0.2c0.6,0.1,1.1,0.3,1.6,0.6l-0.1,0.2l-0.1,0.1l-0.1,0.1c0,0-0.2,0-0.3-0.1
		c-0.2-0.1-0.4-0.1-0.6-0.2c-0.3-0.1-0.6-0.2-0.9-0.2c-0.4-0.1-0.8-0.1-1.3-0.1c-1.8,0-3.3,0.6-4.4,1.8c-1.1,1.2-2,2.9-2.7,5.1v13.3
		h-0.5V47.2z"/>
	<path d="M115.4,19.4c0,0.3-0.1,0.5-0.4,0.8c-0.2,0.2-0.5,0.3-0.8,0.3s-0.6-0.1-0.8-0.3c-0.2-0.2-0.3-0.5-0.3-0.8s0.1-0.6,0.3-0.8
		c0.2-0.2,0.5-0.3,0.8-0.3s0.6,0.1,0.8,0.3C115.3,18.8,115.4,19.1,115.4,19.4z M114.5,27v20.3H114V27H114.5z"/>
	<path d="M135.1,47.2c-0.2,0-0.3-0.1-0.3-0.3l-0.1-3.3c-0.6,0.6-1.2,1.2-1.7,1.6s-1.2,0.9-1.8,1.2s-1.3,0.6-2.1,0.8
		c-0.7,0.2-1.6,0.3-2.5,0.3c-0.6,0-1.2-0.1-1.8-0.3c-0.6-0.2-1.2-0.5-1.7-0.9s-0.9-0.9-1.2-1.6c-0.3-0.6-0.5-1.4-0.5-2.3
		c0-0.9,0.3-1.7,0.8-2.5c0.5-0.7,1.3-1.3,2.4-1.9c1.1-0.5,2.5-0.9,4.2-1.2c1.7-0.3,3.7-0.5,5.9-0.5v-2.6c0-1.1-0.1-2-0.4-2.9
		c-0.2-0.8-0.6-1.6-1-2.1c-0.5-0.6-1-1-1.7-1.3s-1.5-0.5-2.4-0.5c-0.7,0-1.4,0.1-1.9,0.2s-1.1,0.3-1.6,0.6s-0.9,0.5-1.2,0.7
		c-0.3,0.3-0.6,0.5-0.9,0.7s-0.4,0.4-0.6,0.6s-0.3,0.2-0.3,0.2c-0.1,0-0.1,0-0.2-0.1l-0.1-0.1c1-1,2-1.8,3.1-2.4s2.3-0.8,3.7-0.8
		c1,0,1.9,0.2,2.7,0.5s1.4,0.8,1.9,1.4s0.9,1.4,1.1,2.3s0.4,1.9,0.4,3L135.1,47.2L135.1,47.2z M126.5,47.2c1,0,1.8-0.1,2.6-0.3
		s1.5-0.5,2.1-0.9s1.3-0.8,1.8-1.3s1.1-1,1.6-1.5v-6.3c-4.3,0.1-7.6,0.7-9.7,1.6c-2.1,0.9-3.2,2.3-3.2,4c0,0.8,0.1,1.5,0.4,2.1
		s0.6,1.1,1.1,1.4c0.4,0.4,0.9,0.7,1.5,0.8S125.9,47.2,126.5,47.2z"/>
	<path d="M141.9,47.2V27h0.1c0.2,0,0.3,0.1,0.3,0.3l0.1,3.9c0.5-0.7,1-1.3,1.6-1.9s1.2-1,1.9-1.4s1.4-0.7,2.1-0.9
		c0.7-0.2,1.5-0.3,2.3-0.3c2.2,0,3.9,0.7,5,2s1.7,3.2,1.7,5.6v13h-0.5v-13c0-1.1-0.1-2.1-0.4-3c-0.2-0.9-0.6-1.6-1.1-2.3
		s-1.2-1.1-1.9-1.4c-0.8-0.3-1.7-0.5-2.7-0.5c-1.6,0-3.1,0.4-4.4,1.3c-1.3,0.8-2.5,2-3.5,3.5v15.4L141.9,47.2L141.9,47.2z"/>
</g>
<g class="st0">
	<path d="M29.5,65.2h13.9V67h-16V37.7h2.1C29.5,37.7,29.5,65.2,29.5,65.2z"/>
	<path d="M70.6,67H69c-0.2,0-0.4-0.1-0.5-0.2s-0.2-0.2-0.3-0.4l-3.5-8.5H50.3l-3.4,8.5c-0.1,0.2-0.2,0.3-0.3,0.4S46.3,67,46.1,67
		h-1.6l12-29.3h2.1L70.6,67z M51,56.4h13.1l-6-14.8c-0.1-0.2-0.2-0.5-0.3-0.8s-0.2-0.6-0.3-0.9c-0.1,0.3-0.2,0.6-0.3,0.9
		S57,41.3,57,41.6L51,56.4z"/>
	<path d="M75.2,67V37.7h8.4c1.7,0,3.1,0.2,4.3,0.5c1.2,0.3,2.2,0.8,3,1.5c0.8,0.6,1.4,1.4,1.8,2.4s0.6,2,0.6,3.1
		c0,0.8-0.1,1.5-0.4,2.2s-0.7,1.4-1.2,2s-1.1,1.1-1.9,1.6c-0.7,0.4-1.6,0.8-2.5,1c2.3,0.3,4.1,1.1,5.3,2.3c1.2,1.2,1.9,2.8,1.9,4.7
		c0,1.2-0.2,2.4-0.7,3.4c-0.4,1-1.1,1.8-1.9,2.5s-1.9,1.2-3.1,1.6S86.2,67,84.6,67H75.2z M77.3,51.4h6.4c1.4,0,2.5-0.2,3.5-0.5
		s1.7-0.8,2.4-1.4c0.6-0.6,1.1-1.2,1.4-1.9s0.4-1.5,0.4-2.2c0-2-0.6-3.5-1.9-4.5c-1.2-1-3.2-1.5-5.8-1.5h-6.3L77.3,51.4L77.3,51.4z
		 M77.3,53v12.3h7.4c2.6,0,4.5-0.6,5.8-1.7c1.3-1.1,2-2.7,2-4.7c0-0.9-0.2-1.8-0.5-2.5c-0.4-0.7-0.9-1.4-1.5-1.9S89,53.7,88,53.4
		S85.9,53,84.7,53H77.3z"/>
	<path d="M123.8,67h-1.6c-0.2,0-0.4-0.1-0.5-0.2s-0.2-0.2-0.3-0.4l-3.5-8.5h-14.4l-3.4,8.5c-0.1,0.2-0.2,0.3-0.3,0.4
		c-0.1,0.1-0.3,0.2-0.5,0.2h-1.6l12-29.3h2.1L123.8,67z M104.2,56.4h13.1l-6-14.8c-0.1-0.2-0.2-0.5-0.3-0.8s-0.2-0.6-0.3-0.9
		c-0.1,0.3-0.2,0.6-0.3,0.9s-0.2,0.6-0.3,0.8L104.2,56.4z"/>
	<path d="M131.2,53.8V67h-2.1V37.7h7.5c3.4,0,5.9,0.7,7.6,2c1.7,1.3,2.5,3.2,2.5,5.7c0,1.1-0.2,2.1-0.6,3.1
		c-0.4,0.9-0.9,1.7-1.7,2.4c-0.7,0.7-1.6,1.3-2.6,1.7s-2.2,0.7-3.5,0.9c0.3,0.2,0.6,0.5,0.9,0.8L149.3,67h-1.8c-0.2,0-0.4,0-0.6-0.1
		s-0.3-0.2-0.5-0.4L137,54.6c-0.2-0.3-0.5-0.5-0.8-0.6s-0.7-0.2-1.3-0.2H131.2z M131.2,52.2h5.1c1.3,0,2.5-0.2,3.5-0.5
		s1.9-0.8,2.6-1.3c0.7-0.6,1.3-1.3,1.6-2.1c0.4-0.8,0.6-1.7,0.6-2.8c0-2.1-0.7-3.6-2-4.6c-1.4-1-3.4-1.5-6-1.5h-5.4L131.2,52.2
		L131.2,52.2z"/>
	<path d="M172.1,37.7v1.8h-15.4v11.8h12.8V53h-12.8v12.2h15.4V67h-17.6V37.7H172.1z"/>
</g>
</svg>
