<?xml version="1.0" encoding="utf-8"?>
<!-- Generator: Adobe Illustrator 21.0.0, SVG Export Plug-In . SVG Version: 6.00 Build 0)  -->
<svg version="1.1" id="Calque_1" xmlns="http://www.w3.org/2000/svg" xmlns:xlink="http://www.w3.org/1999/xlink" x="0px" y="0px"
	 viewBox="0 0 178 91" style="enable-background:new 0 0 178 91;" xml:space="preserve">
<style type="text/css">
	.st0{opacity:0.19;}
	.st1{fill:none;}
</style>
<g>
	<path d="M41.4,30.6v0.6H21.4v17h17.4v0.6H21.4v17.1h-0.6V30.6H41.4z"/>
	<path d="M49.7,29.6v36.2h-0.6V29.6H49.7z"/>
	<path d="M68.2,40.7c1.7,0,3.3,0.3,4.6,0.9c1.3,0.6,2.5,1.5,3.4,2.6s1.6,2.4,2.1,4c0.5,1.6,0.7,3.3,0.7,5.2s-0.2,3.6-0.7,5.2
		s-1.2,2.9-2.1,4c-0.9,1.1-2,2-3.4,2.5c-1.3,0.6-2.9,0.9-4.6,0.9c-1.7,0-3.3-0.3-4.6-0.9c-1.3-0.6-2.5-1.4-3.4-2.5
		c-0.9-1.1-1.6-2.4-2.1-4s-0.7-3.3-0.7-5.2s0.2-3.6,0.7-5.2c0.5-1.6,1.2-2.9,2.1-4s2-2,3.4-2.6S66.4,40.7,68.2,40.7z M68.2,65.5
		c1.7,0,3.1-0.3,4.4-0.9c1.3-0.6,2.3-1.4,3.2-2.5c0.8-1.1,1.5-2.3,1.9-3.8c0.4-1.5,0.6-3.1,0.6-4.9c0-1.8-0.2-3.5-0.6-5
		c-0.4-1.5-1.1-2.8-1.9-3.9c-0.8-1.1-1.9-1.9-3.2-2.5c-1.3-0.6-2.7-0.9-4.4-0.9c-1.7,0-3.2,0.3-4.4,0.9s-2.3,1.4-3.2,2.5
		c-0.8,1.1-1.5,2.4-1.9,3.9s-0.6,3.2-0.6,5c0,1.8,0.2,3.5,0.6,4.9c0.4,1.5,1.1,2.8,1.9,3.8c0.8,1.1,1.9,1.9,3.2,2.5
		C65,65.3,66.5,65.5,68.2,65.5z"/>
	<path d="M85.9,65.7V41.1H86c0.2,0,0.4,0.1,0.4,0.4l0.1,6.8c0.4-1.2,0.8-2.3,1.3-3.3s1.1-1.7,1.8-2.4c0.7-0.7,1.5-1.1,2.4-1.5
		c0.9-0.3,1.9-0.5,3-0.5c0.8,0,1.5,0.1,2.2,0.3s1.3,0.4,2,0.7l-0.1,0.2c0,0.1-0.1,0.1-0.1,0.1c0,0-0.1,0.1-0.2,0.1
		c-0.1,0-0.2,0-0.4-0.1c-0.2-0.1-0.4-0.2-0.8-0.3c-0.3-0.1-0.7-0.2-1.1-0.3c-0.4-0.1-1-0.1-1.6-0.1c-2.2,0-4,0.7-5.3,2.2
		s-2.4,3.5-3.2,6.1v16.2H85.9z"/>
	<path d="M108.1,32c0,0.4-0.1,0.7-0.4,0.9s-0.6,0.4-1,0.4c-0.4,0-0.7-0.1-1-0.4s-0.4-0.6-0.4-0.9c0-0.4,0.1-0.7,0.4-1
		c0.3-0.3,0.6-0.4,1-0.4c0.4,0,0.7,0.1,1,0.4C108,31.3,108.1,31.6,108.1,32z M107,41.1v24.6h-0.6V41.1H107z"/>
	<path d="M132,65.7c-0.2,0-0.4-0.1-0.4-0.4l-0.2-4c-0.7,0.7-1.4,1.4-2.1,2c-0.7,0.6-1.4,1.1-2.2,1.5s-1.6,0.7-2.5,1
		c-0.9,0.2-1.9,0.3-3,0.3c-0.7,0-1.5-0.1-2.2-0.3c-0.7-0.2-1.4-0.6-2-1.1c-0.6-0.5-1.1-1.1-1.5-1.9c-0.4-0.8-0.6-1.7-0.6-2.9
		c0-1.1,0.3-2.1,1-3s1.6-1.6,3-2.2s3-1.1,5-1.5c2-0.4,4.4-0.6,7.2-0.6v-3.2c0-1.3-0.1-2.4-0.4-3.5c-0.3-1-0.7-1.9-1.3-2.6
		c-0.6-0.7-1.2-1.2-2.1-1.6c-0.8-0.4-1.8-0.6-2.9-0.6c-0.9,0-1.7,0.1-2.4,0.3s-1.3,0.4-1.9,0.7c-0.6,0.3-1,0.6-1.4,0.9
		c-0.4,0.3-0.8,0.6-1.1,0.9c-0.3,0.3-0.5,0.5-0.7,0.7c-0.2,0.2-0.3,0.3-0.4,0.3c-0.1,0-0.2-0.1-0.3-0.2l-0.1-0.1
		c1.2-1.3,2.5-2.2,3.7-2.9s2.8-1,4.5-1c1.3,0,2.3,0.2,3.3,0.6c0.9,0.4,1.7,1,2.3,1.7c0.6,0.8,1,1.7,1.3,2.8c0.3,1.1,0.4,2.3,0.4,3.7
		v16.3H132z M121.6,65.6c1.2,0,2.2-0.1,3.1-0.4s1.8-0.6,2.6-1.1s1.5-1,2.2-1.6c0.7-0.6,1.3-1.2,2-1.9v-7.6c-5.3,0.2-9.2,0.8-11.7,2
		c-2.6,1.1-3.8,2.8-3.8,4.9c0,1,0.2,1.8,0.5,2.5c0.3,0.7,0.8,1.3,1.3,1.8c0.5,0.5,1.1,0.8,1.8,1C120.2,65.5,120.9,65.6,121.6,65.6z"
		/>
	<path d="M140.3,65.7V41.1h0.2c0.2,0,0.4,0.1,0.4,0.4l0.1,4.7c0.6-0.8,1.2-1.6,1.9-2.3c0.7-0.7,1.5-1.3,2.3-1.8
		c0.8-0.5,1.7-0.9,2.6-1.1c0.9-0.3,1.8-0.4,2.8-0.4c2.7,0,4.8,0.8,6.1,2.4c1.3,1.6,2,3.9,2,6.8v15.8H158V50c0-1.4-0.2-2.6-0.5-3.7
		c-0.3-1.1-0.8-2-1.4-2.7s-1.4-1.3-2.4-1.7c-0.9-0.4-2.1-0.6-3.3-0.6c-1.9,0-3.7,0.5-5.3,1.5c-1.6,1-3,2.4-4.3,4.3v18.7H140.3z"/>
</g>
<g class="st0">
	<path d="M3.8,87.5h16.9v2.2H1.3V54.2h2.6V87.5z"/>
	<path d="M53.7,89.7h-2c-0.2,0-0.4-0.1-0.6-0.2c-0.2-0.1-0.3-0.3-0.4-0.5l-4.2-10.3H29.1L25,89c-0.1,0.2-0.2,0.3-0.4,0.5
		c-0.2,0.1-0.4,0.2-0.6,0.2h-2l14.5-35.5h2.6L53.7,89.7z M29.9,76.8h15.9l-7.3-18c-0.1-0.3-0.2-0.6-0.4-1c-0.1-0.4-0.2-0.7-0.4-1.1
		c-0.1,0.4-0.2,0.8-0.4,1.1c-0.1,0.4-0.2,0.7-0.4,1L29.9,76.8z"/>
	<path d="M59.3,89.7V54.2h10.2c2,0,3.8,0.2,5.3,0.6c1.5,0.4,2.7,1,3.7,1.8c1,0.8,1.7,1.7,2.2,2.9c0.5,1.1,0.7,2.4,0.7,3.8
		c0,0.9-0.2,1.8-0.5,2.7c-0.3,0.9-0.8,1.7-1.4,2.4c-0.6,0.7-1.4,1.4-2.3,1.9c-0.9,0.5-1.9,1-3.1,1.2c2.8,0.4,4.9,1.3,6.5,2.8
		c1.5,1.4,2.3,3.3,2.3,5.7c0,1.5-0.3,2.9-0.8,4.1c-0.5,1.2-1.3,2.2-2.3,3.1c-1,0.8-2.3,1.5-3.8,1.9c-1.5,0.4-3.2,0.7-5.1,0.7H59.3z
		 M61.9,70.8h7.7c1.6,0,3-0.2,4.2-0.6c1.2-0.4,2.1-1,2.9-1.7c0.7-0.7,1.3-1.5,1.6-2.3c0.4-0.9,0.5-1.8,0.5-2.7
		c0-2.4-0.8-4.2-2.3-5.4s-3.9-1.8-7-1.8h-7.7V70.8z M61.9,72.7v15h8.9c3.1,0,5.5-0.7,7.1-2s2.4-3.2,2.4-5.7c0-1.1-0.2-2.1-0.6-3
		s-1-1.7-1.8-2.3c-0.8-0.6-1.8-1.1-3-1.4c-1.2-0.3-2.5-0.5-4-0.5H61.9z"/>
	<path d="M118.3,89.7h-2c-0.2,0-0.4-0.1-0.6-0.2c-0.2-0.1-0.3-0.3-0.4-0.5l-4.2-10.3H93.7L89.5,89c-0.1,0.2-0.2,0.3-0.4,0.5
		c-0.2,0.1-0.4,0.2-0.6,0.2h-2l14.5-35.5h2.6L118.3,89.7z M94.5,76.8h15.9l-7.3-18c-0.1-0.3-0.2-0.6-0.4-1c-0.1-0.4-0.2-0.7-0.4-1.1
		c-0.1,0.4-0.2,0.8-0.4,1.1c-0.1,0.4-0.2,0.7-0.4,1L94.5,76.8z"/>
	<path d="M127.2,73.6v16.1h-2.6V54.2h9.1c4.1,0,7.2,0.8,9.2,2.4c2,1.6,3,3.9,3,7c0,1.4-0.2,2.6-0.7,3.7c-0.5,1.1-1.1,2.1-2,3
		c-0.9,0.8-1.9,1.5-3.2,2.1c-1.2,0.5-2.6,0.9-4.2,1.1c0.4,0.3,0.8,0.6,1.1,1l12.2,15.4h-2.2c-0.3,0-0.5,0-0.7-0.2s-0.4-0.3-0.6-0.5
		l-11.4-14.4c-0.3-0.4-0.6-0.6-0.9-0.8c-0.3-0.2-0.8-0.2-1.5-0.2H127.2z M127.2,71.7h6.2c1.6,0,3-0.2,4.2-0.6s2.3-0.9,3.2-1.6
		s1.5-1.5,2-2.5c0.5-1,0.7-2.1,0.7-3.3c0-2.5-0.8-4.4-2.5-5.6c-1.7-1.2-4.1-1.8-7.2-1.8h-6.5V71.7z"/>
	<path d="M176.9,54.2v2.1h-18.7v14.4h15.6v2.1h-15.6v14.8h18.7v2.1h-21.3V54.2H176.9z"/>
</g>
<rect x="0.9" y="24.2" class="st1" width="178.3" height="66.7"/>
</svg>
